{
  "accessors": [
    {
      "bufferView": 2,
      "componentType": 5126,
      "count": 1782,
      "max": [
        95.72567749023438,
        1358.0792236328125,
        1288.326904296875
      ],
      "min": [
        -95.72567749023438,
        1008.1515502929688,
        354.65289306640625
      ],
      "type": "VEC3"
    },
    {
      "bufferView": 2,
      "byteOffset": 21384,
      "componentType": 5126,
      "count": 1782,
      "max": [
        1.0,
        1.0,
        1.0
      ],
      "min": [
        -1.0,
        -1.0,
        -1.0
      ],
      "type": "VEC3"
    },
    {
      "bufferView": 1,
      "componentType": 5126,
      "count": 1782,
      "max": [
        0.9000304937362671,
        0.9831622838973999
      ],
      "min": [
        0.038745567202568054,
        -4.33709734792842e-09
      ],
      "type": "VEC2"
    },
    {
      "bufferView": 1,
      "byteOffset": 14256,
      "componentType": 5126,
      "count": 1782,
      "max": [
        0.9000304937362671,
        0.9831622838973999
      ],
      "min": [
        0.038745567202568054,
        -4.33709734792842e-09
      ],
      "type": "VEC2"
    },
    {
      "bufferView": 0,
      "componentType": 5125,
      "count": 6303,
      "type": "SCALAR"
    },
    {
      "bufferView": 2,
      "byteOffset": 42768,
      "componentType": 5126,
      "count": 36,
      "max": [
        87.0069808959961,
        1244.8023681640625,
        1288.326904296875
      ],
      "min": [
        -87.0069808959961,
        1133.4217529296875,
        1171.2427978515625
      ],
      "type": "VEC3"
    },
    {
      "bufferView": 2,
      "byteOffset": 43200,
      "componentType": 5126,
      "count": 36,
      "max": [
        1.0,
        1.269970653083874e-07,
        1.0
      ],
      "min": [
        -1.0,
        -1.269970653083874e-07,
        0.0
      ],
      "type": "VEC3"
    },
    {
      "bufferView": 1,
      "byteOffset": 28512,
      "componentType": 5126,
      "count": 36,
      "max": [
        0.7165427803993225,
        0.8425329327583313
      ],
      "min": [
        0.35656630992889404,
        0.5602706670761108
      ],
      "type": "VEC2"
    },
    {
      "bufferView": 1,
      "byteOffset": 28800,
      "componentType": 5126,
      "count": 36,
      "max": [
        0.7165427803993225,
        0.8425329327583313
      ],
      "min": [
        0.35656630992889404,
        0.5602706670761108
      ],
      "type": "VEC2"
    },
    {
      "bufferView": 0,
      "byteOffset": 25212,
      "componentType": 5125,
      "count": 96,
      "type": "SCALAR"
    },
    {
      "bufferView": 2,
      "byteOffset": 43632,
      "componentType": 5126,
      "count": 58,
      "max": [
        85.09064483642578,
        1242.8460693359375,
        1260.0604248046875
      ],
      "min": [
        -86.94719696044922,
        1032.837158203125,
        362.286865234375
      ],
      "type": "VEC3"
    },
    {
      "bufferView": 2,
      "byteOffset": 44328,
      "componentType": 5126,
      "count": 58,
      "max": [
        1.0,
        0.0,
        8.853933053387664e-08
      ],
      "min": [
        -1.0,
        0.0,
        -1.3454169334181643e-07
      ],
      "type": "VEC3"
    },
    {
      "bufferView": 1,
      "byteOffset": 29088,
      "componentType": 5126,
      "count": 58,
      "max": [
        0.8494578003883362,
        0.7984470725059509
      ],
      "min": [
        0.0,
        0.3848678767681122
      ],
      "type": "VEC2"
    },
    {
      "bufferView": 1,
      "byteOffset": 29552,
      "componentType": 5126,
      "count": 58,
      "max": [
        0.8494578003883362,
        0.7984470725059509
      ],
      "min": [
        0.0,
        0.3848678767681122
      ],
      "type": "VEC2"
    },
    {
      "bufferView": 0,
      "byteOffset": 25596,
      "componentType": 5125,
      "count": 156,
      "type": "SCALAR"
    },
    {
      "bufferView": 2,
      "byteOffset": 45024,
      "componentType": 5126,
      "count": 168,
      "max": [
        48.573665618896484,
        322.4095153808594,
        1214.3839111328125
      ],
      "min": [
        -48.573665618896484,
        226.3226318359375,
        986.0860595703125
      ],
      "type": "VEC3"
    },
    {
      "bufferView": 2,
      "byteOffset": 47040,
      "componentType": 5126,
      "count": 168,
      "max": [
        1.0,
        1.0,
        1.0
      ],
      "min": [
        -1.0,
        -1.0,
        -1.0
      ],
      "type": "VEC3"
    },
    {
      "bufferView": 1,
      "byteOffset": 30016,
      "componentType": 5126,
      "count": 168,
      "max": [
        0.905134916305542,
        0.851182222366333
      ],
      "min": [
        0.19266879558563232,
        0.1276252716779709
      ],
      "type": "VEC2"
    },
    {
      "bufferView": 1,
      "byteOffset": 31360,
      "componentType": 5126,
      "count": 168,
      "max": [
        0.905134916305542,
        0.851182222366333
      ],
      "min": [
        0.19266879558563232,
        0.1276252716779709
      ],
      "type": "VEC2"
    },
    {
      "bufferView": 0,
      "byteOffset": 26220,
      "componentType": 5125,
      "count": 372,
      "type": "SCALAR"
    },
    {
      "bufferView": 2,
      "byteOffset": 49056,
      "componentType": 5126,
      "count": 1264,
      "max": [
        72.92371368408203,
        1208.8095703125,
        -1228.3453369140625
      ],
      "min": [
        -62.19843673706055,
        1079.9320068359375,
        -1329.040283203125
      ],
      "type": "VEC3"
    },
    {
      "bufferView": 2,
      "byteOffset": 64224,
      "componentType": 5126,
      "count": 1264,
      "max": [
        1.0,
        1.0,
        1.0
      ],
      "min": [
        -1.0,
        -1.0,
        -1.0
      ],
      "type": "VEC3"
    },
    {
      "bufferView": 1,
      "byteOffset": 32704,
      "componentType": 5126,
      "count": 1264,
      "max": [
        0.9051206707954407,
        0.9977796673774719
      ],
      "min": [
        0.07076377421617508,
        -1.5382086715476362e-09
      ],
      "type": "VEC2"
    },
    {
      "bufferView": 1,
      "byteOffset": 42816,
      "componentType": 5126,
      "count": 1264,
      "max": [
        0.9051206707954407,
        0.9977796673774719
      ],
      "min": [
        0.07076377421617508,
        -1.5382086715476362e-09
      ],
      "type": "VEC2"
    },
    {
      "bufferView": 0,
      "byteOffset": 27708,
      "componentType": 5125,
      "count": 3012,
      "type": "SCALAR"
    },
    {
      "bufferView": 2,
      "byteOffset": 79392,
      "componentType": 5126,
      "count": 832,
      "max": [
        117.5429916381836,
        1156.0596923828125,
        2729.895263671875
      ],
      "min": [
        -117.5429916381836,
        -12.890887260437012,
        1002.2069702148438
      ],
      "type": "VEC3"
    },
    {
      "bufferView": 2,
      "byteOffset": 89376,
      "componentType": 5126,
      "count": 832,
      "max": [
        1.0,
        1.0,
        1.0
      ],
      "min": [
        -1.0,
        -1.0,
        -1.0
      ],
      "type": "VEC3"
    },
    {
      "bufferView": 1,
      "byteOffset": 52928,
      "componentType": 5126,
      "count": 832,
      "max": [
        0.8862142562866211,
        0.8779184222221375
      ],
      "min": [
        0.016839588060975075,
        5.563117744245005e-10
      ],
      "type": "VEC2"
    },
    {
      "bufferView": 1,
      "byteOffset": 59584,
      "componentType": 5126,
      "count": 832,
      "max": [
        0.8862142562866211,
        0.8779184222221375
      ],
      "min": [
        0.016839588060975075,
        5.563117744245005e-10
      ],
      "type": "VEC2"
    },
    {
      "bufferView": 0,
      "byteOffset": 39756,
      "componentType": 5125,
      "count": 1872,
      "type": "SCALAR"
    },
    {
      "bufferView": 2,
      "byteOffset": 99360,
      "componentType": 5126,
      "count": 5512,
      "max": [
        111.70452880859375,
        1134.73486328125,
        -127.6558609008789
      ],
      "min": [
        -111.70452880859375,
        881.9259643554688,
        -1381.3978271484375
      ],
      "type": "VEC3"
    },
    {
      "bufferView": 2,
      "byteOffset": 165504,
      "componentType": 5126,
      "count": 5512,
      "max": [
        1.0,
        1.0,
        1.0
      ],
      "min": [
        -1.0,
        -0.9979985356330872,
        -1.0
      ],
      "type": "VEC3"
    },
    {
      "bufferView": 1,
      "byteOffset": 66240,
      "componentType": 5126,
      "count": 5512,
      "max": [
        0.8954430222511292,
        0.9962787628173828
      ],
      "min": [
        -1.1699971547152188e-10,
        2.6785009765717405e-09
      ],
      "type": "VEC2"
    },
    {
      "bufferView": 1,
      "byteOffset": 110336,
      "componentType": 5126,
      "count": 5512,
      "max": [
        0.8954430222511292,
        0.9962787628173828
      ],
      "min": [
        -1.1699971547152188e-10,
        2.6785009765717405e-09
      ],
      "type": "VEC2"
    },
    {
      "bufferView": 0,
      "byteOffset": 47244,
      "componentType": 5125,
      "count": 17616,
      "type": "SCALAR"
    },
    {
      "bufferView": 2,
      "byteOffset": 231648,
      "componentType": 5126,
      "count": 403,
      "max": [
        47.89594268798828,
        1090.2313232421875,
        1306.2503662109375
      ],
      "min": [
        -49.21037673950195,
        934.8836669921875,
        1116.130615234375
      ],
      "type": "VEC3"
    },
    {
      "bufferView": 2,
      "byteOffset": 236484,
      "componentType": 5126,
      "count": 403,
      "max": [
        1.0,
        1.0,
        1.0
      ],
      "min": [
        -1.0,
        -1.0,
        -1.0
      ],
      "type": "VEC3"
    },
    {
      "bufferView": 1,
      "byteOffset": 154432,
      "componentType": 5126,
      "count": 403,
      "max": [
        0.9038490653038025,
        0.9319074749946594
      ],
      "min": [
        0.040581490844488144,
        0.034072209149599075
      ],
      "type": "VEC2"
    },
    {
      "bufferView": 1,
      "byteOffset": 157656,
      "componentType": 5126,
      "count": 403,
      "max": [
        0.9038490653038025,
        0.9319074749946594
      ],
      "min": [
        0.040581490844488144,
        0.034072209149599075
      ],
      "type": "VEC2"
    },
    {
      "bufferView": 0,
      "byteOffset": 117708,
      "componentType": 5125,
      "count": 1116,
      "type": "SCALAR"
    },
    {
      "bufferView": 2,
      "byteOffset": 241320,
      "componentType": 5126,
      "count": 6,
      "max": [
        27.175785064697266,
        1081.528076171875,
        1246.5247802734375
      ],
      "min": [
        -28.490209579467773,
        983.1057739257813,
        1246.5247802734375
      ],
      "type": "VEC3"
    },
    {
      "bufferView": 2,
      "byteOffset": 241392,
      "componentType": 5126,
      "count": 6,
      "max": [
        0.0,
        2.9142017865524394e-07,
        1.0
      ],
      "min": [
        0.0,
        0.0,
        1.0
      ],
      "type": "VEC3"
    },
    {
      "bufferView": 1,
      "byteOffset": 160880,
      "componentType": 5126,
      "count": 6,
      "max": [
        0.6706991791725159,
        0.4213108718395233
      ],
      "min": [
        0.6619122624397278,
        0.4057748019695282
      ],
      "type": "VEC2"
    },
    {
      "bufferView": 1,
      "byteOffset": 160928,
      "componentType": 5126,
      "count": 6,
      "max": [
        0.6706991791725159,
        0.4213108718395233
      ],
      "min": [
        0.6619122624397278,
        0.4057748019695282
      ],
      "type": "VEC2"
    },
    {
      "bufferView": 0,
      "byteOffset": 122172,
      "componentType": 5125,
      "count": 12,
      "type": "SCALAR"
    },
    {
      "bufferView": 2,
      "byteOffset": 241464,
      "componentType": 5126,
      "count": 88,
      "max": [
        -85.78289794921875,
        532.1439819335938,
        1254.207275390625
      ],
      "min": [
        -132.16015625,
        487.7493896484375,
        1209.8128662109375
      ],
      "type": "VEC3"
    },
    {
      "bufferView": 2,
      "byteOffset": 242520,
      "componentType": 5126,
      "count": 88,
      "max": [
        0.0,
        1.0,
        1.0
      ],
      "min": [
        -0.7088153958320618,
        -1.0,
        -1.0
      ],
      "type": "VEC3"
    },
    {
      "bufferView": 1,
      "byteOffset": 160976,
      "componentType": 5126,
      "count": 88,
      "max": [
        0.8862142562866211,
        0.7771182656288147
      ],
      "min": [
        0.3403647840023041,
        -1.3373582241626991e-09
      ],
      "type": "VEC2"
    },
    {
      "bufferView": 1,
      "byteOffset": 161680,
      "componentType": 5126,
      "count": 88,
      "max": [
        0.8862142562866211,
        0.7771182656288147
      ],
      "min": [
        0.3403647840023041,
        -1.3373582241626991e-09
      ],
      "type": "VEC2"
    },
    {
      "bufferView": 0,
      "byteOffset": 122220,
      "componentType": 5125,
      "count": 192,
      "type": "SCALAR"
    },
    {
      "bufferView": 2,
      "byteOffset": 243576,
      "componentType": 5126,
      "count": 16,
      "max": [
        -132.16015625,
        524.9487915039063,
        1247.0120849609375
      ],
      "min": [
        -132.16015625,
        494.9446105957031,
        1217.008056640625
      ],
      "type": "VEC3"
    },
    {
      "bufferView": 2,
      "byteOffset": 243768,
      "componentType": 5126,
      "count": 16,
      "max": [
        -1.0,
        0.0,
        5.682592927769292e-06
      ],
      "min": [
        -1.0,
        0.0,
        -3.2997231755871326e-06
      ],
      "type": "VEC3"
    },
    {
      "bufferView": 1,
      "byteOffset": 162384,
      "componentType": 5126,
      "count": 16,
      "max": [
        0.34612390398979187,
        0.7760043144226074
      ],
      "min": [
        0.34147870540618896,
        0.7713591456413269
      ],
      "type": "VEC2"
    },
    {
      "bufferView": 1,
      "byteOffset": 162512,
      "componentType": 5126,
      "count": 16,
      "max": [
        0.34612390398979187,
        0.7760043144226074
      ],
      "min": [
        0.34147870540618896,
        0.7713591456413269
      ],
      "type": "VEC2"
    },
    {
      "bufferView": 0,
      "byteOffset": 122988,
      "componentType": 5125,
      "count": 42,
      "type": "SCALAR"
    },
    {
      "bufferView": 2,
      "byteOffset": 243960,
      "componentType": 5126,
      "count": 17748,
      "max": [
        154.49766540527344,
        1157.922119140625,
        3283.376220703125
      ],
      "min": [
        -157.6427001953125,
        -186.69557189941406,
        -2169.462646484375
      ],
      "type": "VEC3"
    },
    {
      "bufferView": 2,
      "byteOffset": 456936,
      "componentType": 5126,
      "count": 17748,
      "max": [
        1.0,
        1.0,
        1.0
      ],
      "min": [
        -1.0,
        -1.0,
        -1.0
      ],
      "type": "VEC3"
    },
    {
      "bufferView": 1,
      "byteOffset": 162640,
      "componentType": 5126,
      "count": 17748,
      "max": [
        0.904910147190094,
        1.0
      ],
      "min": [
        -1.6265556013195237e-08,
        -1.3326036274463604e-08
      ],
      "type": "VEC2"
    },
    {
      "bufferView": 1,
      "byteOffset": 304624,
      "componentType": 5126,
      "count": 17748,
      "max": [
        0.904910147190094,
        1.0
      ],
      "min": [
        -1.6265556013195237e-08,
        -1.3326036274463604e-08
      ],
      "type": "VEC2"
    },
    {
      "bufferView": 0,
      "byteOffset": 123156,
      "componentType": 5125,
      "count": 50742,
      "type": "SCALAR"
    },
    {
      "bufferView": 2,
      "byteOffset": 669912,
      "componentType": 5126,
      "count": 877,
      "max": [
        147.85964965820313,
        850.538818359375,
        3053.116943359375
      ],
      "min": [
        -147.85964965820313,
        -78.51581573486328,
        -824.9674072265625
      ],
      "type": "VEC3"
    },
    {
      "bufferView": 2,
      "byteOffset": 680436,
      "componentType": 5126,
      "count": 877,
      "max": [
        1.0,
        1.0,
        1.0
      ],
      "min": [
        -1.0,
        -1.0,
        -1.0
      ],
      "type": "VEC3"
    },
    {
      "bufferView": 1,
      "byteOffset": 446608,
      "componentType": 5126,
      "count": 877,
      "max": [
        0.8653588891029358,
        0.8742750287055969
      ],
      "min": [
        0.05371534451842308,
        -3.1224793861639455e-09
      ],
      "type": "VEC2"
    },
    {
      "bufferView": 1,
      "byteOffset": 453624,
      "componentType": 5126,
      "count": 877,
      "max": [
        0.8653588891029358,
        0.8742750287055969
      ],
      "min": [
        0.05371534451842308,
        -3.1224793861639455e-09
      ],
      "type": "VEC2"
    },
    {
      "bufferView": 0,
      "byteOffset": 326124,
      "componentType": 5125,
      "count": 2868,
      "type": "SCALAR"
    },
    {
      "bufferView": 2,
      "byteOffset": 690960,
      "componentType": 5126,
      "count": 273,
      "max": [
        147.85964965820313,
        1149.56640625,
        2978.090576171875
      ],
      "min": [
        -147.85964965820313,
        23.16126823425293,
        -2000.8873291015625
      ],
      "type": "VEC3"
    },
    {
      "bufferView": 2,
      "byteOffset": 694236,
      "componentType": 5126,
      "count": 273,
      "max": [
        1.0,
        1.0,
        0.11613661795854568
      ],
      "min": [
        -1.0,
        -0.21252070367336273,
        -0.0027737219352275133
      ],
      "type": "VEC3"
    },
    {
      "bufferView": 1,
      "byteOffset": 460640,
      "componentType": 5126,
      "count": 273,
      "max": [
        0.9037578105926514,
        0.9848824143409729
      ],
      "min": [
        0.10049045085906982,
        0.022258155047893524
      ],
      "type": "VEC2"
    },
    {
      "bufferView": 1,
      "byteOffset": 462824,
      "componentType": 5126,
      "count": 273,
      "max": [
        0.9037578105926514,
        0.9848824143409729
      ],
      "min": [
        0.10049045085906982,
        0.022258155047893524
      ],
      "type": "VEC2"
    },
    {
      "bufferView": 0,
      "byteOffset": 337596,
      "componentType": 5125,
      "count": 624,
      "type": "SCALAR"
    },
    {
      "bufferView": 2,
      "byteOffset": 697512,
      "componentType": 5126,
      "count": 70,
      "max": [
        105.40164947509766,
        864.6907958984375,
        2082.3046875
      ],
      "min": [
        -104.83023834228516,
        -71.80438232421875,
        1040.9803466796875
      ],
      "type": "VEC3"
    },
    {
      "bufferView": 2,
      "byteOffset": 698352,
      "componentType": 5126,
      "count": 70,
      "max": [
        1.0,
        0.7071215510368347,
        0.7070920467376709
      ],
      "min": [
        -1.0,
        -0.933735191822052,
        -0.8520520925521851
      ],
      "type": "VEC3"
    },
    {
      "bufferView": 1,
      "byteOffset": 465008,
      "componentType": 5126,
      "count": 70,
      "max": [
        0.9039042592048645,
        0.8694461584091187
      ],
      "min": [
        0.25276413559913635,
        0.04022227227687836
      ],
      "type": "VEC2"
    },
    {
      "bufferView": 1,
      "byteOffset": 465568,
      "componentType": 5126,
      "count": 70,
      "max": [
        0.9039042592048645,
        0.8694461584091187
      ],
      "min": [
        0.25276413559913635,
        0.04022227227687836
      ],
      "type": "VEC2"
    },
    {
      "bufferView": 0,
      "byteOffset": 340092,
      "componentType": 5125,
      "count": 144,
      "type": "SCALAR"
    },
    {
      "bufferView": 2,
      "byteOffset": 699192,
      "componentType": 5126,
      "count": 1018,
      "max": [
        118.13799285888672,
        953.1414794921875,
        3299.005126953125
      ],
      "min": [
        -186.87619018554688,
        -78.51581573486328,
        1135.2646484375
      ],
      "type": "VEC3"
    },
    {
      "bufferView": 2,
      "byteOffset": 711408,
      "componentType": 5126,
      "count": 1018,
      "max": [
        0.9900211095809937,
        0.9968684911727905,
        1.0
      ],
      "min": [
        -0.9999961853027344,
        -0.9002622365951538,
        -0.9995231628417969
      ],
      "type": "VEC3"
    },
    {
      "bufferView": 1,
      "byteOffset": 466128,
      "componentType": 5126,
      "count": 1018,
      "max": [
        0.9022940993309021,
        0.970541775226593
      ],
      "min": [
        0.012470795772969723,
        0.0924731120467186
      ],
      "type": "VEC2"
    },
    {
      "bufferView": 1,
      "byteOffset": 474272,
      "componentType": 5126,
      "count": 1018,
      "max": [
        0.9022940993309021,
        0.970541775226593
      ],
      "min": [
        0.012470795772969723,
        0.0924731120467186
      ],
      "type": "VEC2"
    },
    {
      "bufferView": 0,
      "byteOffset": 340668,
      "componentType": 5125,
      "count": 3990,
      "type": "SCALAR"
    },
    {
      "bufferView": 2,
      "byteOffset": 723624,
      "componentType": 5126,
      "count": 172,
      "max": [
        93.11882019042969,
        913.4417724609375,
        2997.5390625
      ],
      "min": [
        -57.156883239746094,
        303.5911865234375,
        508.24578857421875
      ],
      "type": "VEC3"
    },
    {
      "bufferView": 2,
      "byteOffset": 725688,
      "componentType": 5126,
      "count": 172,
      "max": [
        1.0,
        1.0,
        1.0
      ],
      "min": [
        -1.0,
        -1.0,
        -1.0
      ],
      "type": "VEC3"
    },
    {
      "bufferView": 1,
      "byteOffset": 482416,
      "componentType": 5126,
      "count": 172,
      "max": [
        0.8881726264953613,
        0.9201489090919495
      ],
      "min": [
        0.10508963465690613,
        1.7141962294076052e-09
      ],
      "type": "VEC2"
    },
    {
      "bufferView": 1,
      "byteOffset": 483792,
      "componentType": 5126,
      "count": 172,
      "max": [
        0.8881726264953613,
        0.9201489090919495
      ],
      "min": [
        0.10508963465690613,
        1.7141962294076052e-09
      ],
      "type": "VEC2"
    },
    {
      "bufferView": 0,
      "byteOffset": 356628,
      "componentType": 5125,
      "count": 351,
      "type": "SCALAR"
    },
    {
      "bufferView": 2,
      "byteOffset": 727752,
      "componentType": 5126,
      "count": 64,
      "max": [
        52.85993957519531,
        388.6788330078125,
        -1891.9307861328125
      ],
      "min": [
        -52.85992431640625,
        282.9590148925781,
        -1903.3487548828125
      ],
      "type": "VEC3"
    },
    {
      "bufferView": 2,
      "byteOffset": 728520,
      "componentType": 5126,
      "count": 64,
      "max": [
        0.23836246132850647,
        0.23836052417755127,
        -0.9711753726005554
      ],
      "min": [
        -0.23836244642734528,
        -0.23836049437522888,
        -0.9918484687805176
      ],
      "type": "VEC3"
    },
    {
      "bufferView": 1,
      "byteOffset": 485168,
      "componentType": 5126,
      "count": 64,
      "max": [
        0.12451989203691483,
        0.8487623333930969
      ],
      "min": [
        0.10801002383232117,
        0.8321539759635925
      ],
      "type": "VEC2"
    },
    {
      "bufferView": 1,
      "byteOffset": 485680,
      "componentType": 5126,
      "count": 64,
      "max": [
        0.12451989203691483,
        0.8487623333930969
      ],
      "min": [
        0.10801002383232117,
        0.8321539759635925
      ],
      "type": "VEC2"
    },
    {
      "bufferView": 1,
      "byteOffset": 486192,
      "componentType": 5126,
      "count": 64,
      "max": [
        0.12451989203691483,
        0.8487623333930969
      ],
      "min": [
        0.10801002383232117,
        0.8321539759635925
      ],
      "type": "VEC2"
    },
    {
      "bufferView": 0,
      "byteOffset": 358032,
      "componentType": 5125,
      "count": 282,
      "type": "SCALAR"
    },
    {
      "bufferView": 2,
      "byteOffset": 729288,
      "componentType": 5126,
      "count": 886,
      "max": [
        87.81920623779297,
        1020.0010375976563,
        2490.442138671875
      ],
      "min": [
        -87.83303833007813,
        937.058837890625,
        2111.170166015625
      ],
      "type": "VEC3"
    },
    {
      "bufferView": 2,
      "byteOffset": 739920,
      "componentType": 5126,
      "count": 886,
      "max": [
        0.9999998807907104,
        1.0,
        1.0
      ],
      "min": [
        -0.9999999403953552,
        -0.9529640674591064,
        -1.0
      ],
      "type": "VEC3"
    },
    {
      "bufferView": 1,
      "byteOffset": 486704,
      "componentType": 5126,
      "count": 886,
      "max": [
        0.9025601148605347,
        0.8799578547477722
      ],
      "min": [
        0.10508961230516434,
        0.05419829487800598
      ],
      "type": "VEC2"
    },
    {
      "bufferView": 1,
      "byteOffset": 493792,
      "componentType": 5126,
      "count": 886,
      "max": [
        0.9025601148605347,
        0.8799578547477722
      ],
      "min": [
        0.10508961230516434,
        0.05419829487800598
      ],
      "type": "VEC2"
    },
    {
      "bufferView": 0,
      "byteOffset": 359160,
      "componentType": 5125,
      "count": 2988,
      "type": "SCALAR"
    },
    {
      "bufferView": 2,
      "byteOffset": 750552,
      "componentType": 5126,
      "count": 393,
      "max": [
        54.73678207397461,
        584.5216064453125,
        626.0715942382813
      ],
      "min": [
        -31.76210594177246,
        385.0694580078125,
        -447.6593017578125
      ],
      "type": "VEC3"
    },
    {
      "bufferView": 2,
      "byteOffset": 755268,
      "componentType": 5126,
      "count": 393,
      "max": [
        1.0,
        1.0,
        1.0
      ],
      "min": [
        -1.0,
        -1.0,
        -1.0
      ],
      "type": "VEC3"
    },
    {
      "bufferView": 1,
      "byteOffset": 500880,
      "componentType": 5126,
      "count": 393,
      "max": [
        0.8522024750709534,
        0.8503583073616028
      ],
      "min": [
        0.14291341602802277,
        0.16624079644680023
      ],
      "type": "VEC2"
    },
    {
      "bufferView": 1,
      "byteOffset": 504024,
      "componentType": 5126,
      "count": 393,
      "max": [
        0.8522024750709534,
        0.8503583073616028
      ],
      "min": [
        0.14291341602802277,
        0.16624079644680023
      ],
      "type": "VEC2"
    },
    {
      "bufferView": 0,
      "byteOffset": 371112,
      "componentType": 5125,
      "count": 1092,
      "type": "SCALAR"
    },
    {
      "bufferView": 2,
      "byteOffset": 759984,
      "componentType": 5126,
      "count": 288,
      "max": [
        149.61203002929688,
        838.0709838867188,
        517.7120361328125
      ],
      "min": [
        -157.6427001953125,
        649.260986328125,
        -707.0709228515625
      ],
      "type": "VEC3"
    },
    {
      "bufferView": 2,
      "byteOffset": 763440,
      "componentType": 5126,
      "count": 288,
      "max": [
        1.0,
        0.0,
        1.3323837038115016e-06
      ],
      "min": [
        -1.0,
        0.0,
        -1.0032223372036242e-06
      ],
      "type": "VEC3"
    },
    {
      "bufferView": 1,
      "byteOffset": 507168,
      "componentType": 5126,
      "count": 288,
      "max": [
        0.8823210597038269,
        0.8821908831596375
      ],
      "min": [
        0.05590983107686043,
        0.31558504700660706
      ],
      "type": "VEC2"
    },
    {
      "bufferView": 1,
      "byteOffset": 509472,
      "componentType": 5126,
      "count": 288,
      "max": [
        0.8823210597038269,
        0.8821908831596375
      ],
      "min": [
        0.05590983107686043,
        0.31558504700660706
      ],
      "type": "VEC2"
    },
    {
      "bufferView": 0,
      "byteOffset": 375480,
      "componentType": 5125,
      "count": 648,
      "type": "SCALAR"
    },
    {
      "bufferView": 2,
      "byteOffset": 766896,
      "componentType": 5126,
      "count": 24,
      "max": [
        60.91374206542969,
        1243.8583984375,
        1285.9442138671875
      ],
      "min": [
        -60.91374206542969,
        1137.177978515625,
        386.7453918457031
      ],
      "type": "VEC3"
    },
    {
      "bufferView": 2,
      "byteOffset": 767184,
      "componentType": 5126,
      "count": 24,
      "max": [
        1.0,
        1.0,
        1.0
      ],
      "min": [
        -1.0,
        -1.0,
        -1.0
      ],
      "type": "VEC3"
    },
    {
      "bufferView": 3,
      "componentType": 5126,
      "count": 24,
      "max": [
        1.0,
        0.0,
        0.0,
        1.0
      ],
      "min": [
        -1.0,
        -1.0,
        0.0,
        1.0
      ],
      "type": "VEC4"
    },
    {
      "bufferView": 1,
      "byteOffset": 511776,
      "componentType": 5126,
      "count": 24,
      "max": [
        0.8127006888389587,
        0.8478662967681885
      ],
      "min": [
        -3.79674203188074e-09,
        0.16836567223072052
      ],
      "type": "VEC2"
    },
    {
      "bufferView": 1,
      "byteOffset": 511968,
      "componentType": 5126,
      "count": 24,
      "max": [
        0.8127006888389587,
        0.8478662967681885
      ],
      "min": [
        -3.79674203188074e-09,
        0.16836567223072052
      ],
      "type": "VEC2"
    },
    {
      "bufferView": 1,
      "byteOffset": 512160,
      "componentType": 5126,
      "count": 24,
      "max": [
        0.8127006888389587,
        0.8478662967681885
      ],
      "min": [
        -3.79674203188074e-09,
        0.16836567223072052
      ],
      "type": "VEC2"
    },
    {
      "bufferView": 0,
      "byteOffset": 378072,
      "componentType": 5125,
      "count": 36,
      "type": "SCALAR"
    },
    {
      "bufferView": 2,
      "byteOffset": 767472,
      "componentType": 5126,
      "count": 106,
      "max": [
        115.87468719482422,
        696.66064453125,
        3114.7919921875
      ],
      "min": [
        -115.87467193603516,
        566.56591796875,
        1774.4168701171875
      ],
      "type": "VEC3"
    },
    {
      "bufferView": 2,
      "byteOffset": 768744,
      "componentType": 5126,
      "count": 106,
      "max": [
        1.0,
        1.0,
        0.9997220635414124
      ],
      "min": [
        -1.0,
        -1.0,
        -0.9995673894882202
      ],
      "type": "VEC3"
    },
    {
      "bufferView": 1,
      "byteOffset": 512352,
      "componentType": 5126,
      "count": 106,
      "max": [
        0.9046100378036499,
        0.9054334163665771
      ],
      "min": [
        0.2481909841299057,
        0.004900765139609575
      ],
      "type": "VEC2"
    },
    {
      "bufferView": 1,
      "byteOffset": 513200,
      "componentType": 5126,
      "count": 106,
      "max": [
        0.9046100378036499,
        0.9054334163665771
      ],
      "min": [
        0.2481909841299057,
        0.004900765139609575
      ],
      "type": "VEC2"
    },
    {
      "bufferView": 0,
      "byteOffset": 378216,
      "componentType": 5125,
      "count": 210,
      "type": "SCALAR"
    },
    {
      "bufferView": 2,
      "byteOffset": 770016,
      "componentType": 5126,
      "count": 86,
      "max": [
        132.34429931640625,
        850.538818359375,
        -824.9671630859375
      ],
      "min": [
        -132.34429931640625,
        577.591552734375,
        -1117.561279296875
      ],
      "type": "VEC3"
    },
    {
      "bufferView": 2,
      "byteOffset": 771048,
      "componentType": 5126,
      "count": 86,
      "max": [
        0.9718000292778015,
        0.9783626794815063,
        -0.20689740777015686
      ],
      "min": [
        -0.9718000292778015,
        -0.9714013934135437,
        -0.7893154621124268
      ],
      "type": "VEC3"
    },
    {
      "bufferView": 1,
      "byteOffset": 514048,
      "componentType": 5126,
      "count": 86,
      "max": [
        0.6403530240058899,
        0.7642199993133545
      ],
      "min": [
        0.04058146849274635,
        0.6778621673583984
      ],
      "type": "VEC2"
    },
    {
      "bufferView": 1,
      "byteOffset": 514736,
      "componentType": 5126,
      "count": 86,
      "max": [
        0.6403530240058899,
        0.7642199993133545
      ],
      "min": [
        0.04058146849274635,
        0.6778621673583984
      ],
      "type": "VEC2"
    },
    {
      "bufferView": 0,
      "byteOffset": 379056,
      "componentType": 5125,
      "count": 132,
      "type": "SCALAR"
    },
    {
      "bufferView": 2,
      "byteOffset": 772080,
      "componentType": 5126,
      "count": 264,
      "max": [
        -18.33218765258789,
        1028.4564208984375,
        1199.41259765625
      ],
      "min": [
        -32.31311798095703,
        1014.7850952148438,
        1160.419677734375
      ],
      "type": "VEC3"
    },
    {
      "bufferView": 2,
      "byteOffset": 775248,
      "componentType": 5126,
      "count": 264,
      "max": [
        0.3190248906612396,
        0.947749137878418,
        1.0
      ],
      "min": [
        -0.8968047499656677,
        -0.9477447867393494,
        -1.0
      ],
      "type": "VEC3"
    },
    {
      "bufferView": 1,
      "byteOffset": 515424,
      "componentType": 5126,
      "count": 264,
      "max": [
        0.9052904844284058,
        0.24320732057094574
      ],
      "min": [
        0.9035688638687134,
        0.16783426702022552
      ],
      "type": "VEC2"
    },
    {
      "bufferView": 1,
      "byteOffset": 517536,
      "componentType": 5126,
      "count": 264,
      "max": [
        0.9052904844284058,
        0.24320732057094574
      ],
      "min": [
        0.9035688638687134,
        0.16783426702022552
      ],
      "type": "VEC2"
    },
    {
      "bufferView": 0,
      "byteOffset": 379584,
      "componentType": 5125,
      "count": 576,
      "type": "SCALAR"
    },
    {
      "bufferView": 2,
      "byteOffset": 778416,
      "componentType": 5126,
      "count": 48,
      "max": [
        -29.915719985961914,
        1027.3206787109375,
        1197.610595703125
      ],
      "min": [
        -32.31311798095703,
        1020.1985473632813,
        1162.221923828125
      ],
      "type": "VEC3"
    },
    {
      "bufferView": 2,
      "byteOffset": 778992,
      "componentType": 5126,
      "count": 48,
      "max": [
        -0.9477006793022156,
        0.31916067004203796,
        3.9632472180528566e-05
      ],
      "min": [
        -0.947794497013092,
        0.3188818395137787,
        -3.964214556617662e-05
      ],
      "type": "VEC3"
    },
    {
      "bufferView": 1,
      "byteOffset": 519648,
      "componentType": 5126,
      "count": 48,
      "max": [
        0.9050114750862122,
        0.17271961271762848
      ],
      "min": [
        0.9038479328155518,
        0.16811324656009674
      ],
      "type": "VEC2"
    },
    {
      "bufferView": 1,
      "byteOffset": 520032,
      "componentType": 5126,
      "count": 48,
      "max": [
        0.9050114750862122,
        0.17271961271762848
      ],
      "min": [
        0.9038479328155518,
        0.16811324656009674
      ],
      "type": "VEC2"
    },
    {
      "bufferView": 0,
      "byteOffset": 381888,
      "componentType": 5125,
      "count": 126,
      "type": "SCALAR"
    },
    {
      "bufferView": 2,
      "byteOffset": 779568,
      "componentType": 5126,
      "count": 24,
      "max": [
        123.28800201416016,
        458.84918212890625,
        -420.9917907714844
      ],
      "min": [
        -123.28800201416016,
        437.94580078125,
        -1428.26513671875
      ],
      "type": "VEC3"
    },
    {
      "bufferView": 2,
      "byteOffset": 779856,
      "componentType": 5126,
      "count": 24,
      "max": [
        1.0,
        1.0,
        1.0
      ],
      "min": [
        -1.0,
        -1.0,
        -1.0
      ],
      "type": "VEC3"
    },
    {
      "bufferView": 1,
      "byteOffset": 520416,
      "componentType": 5126,
      "count": 24,
      "max": [
        0.875,
        1.0
      ],
      "min": [
        0.125,
        0.0
      ],
      "type": "VEC2"
    },
    {
      "bufferView": 1,
      "byteOffset": 520608,
      "componentType": 5126,
      "count": 24,
      "max": [
        0.875,
        1.0
      ],
      "min": [
        0.125,
        0.0
      ],
      "type": "VEC2"
    },
    {
      "bufferView": 0,
      "byteOffset": 382392,
      "componentType": 5125,
      "count": 36,
      "type": "SCALAR"
    },
    {
      "bufferView": 2,
      "byteOffset": 780144,
      "componentType": 5126,
      "count": 4218,
      "max": [
        129.02723693847656,
        459.0224304199219,
        -417.5079345703125
      ],
      "min": [
        -129.02725219726563,
        324.9458312988281,
        -1437.850341796875
      ],
      "type": "VEC3"
    },
    {
      "bufferView": 2,
      "byteOffset": 830760,
      "componentType": 5126,
      "count": 4218,
      "max": [
        1.0,
        1.0,
        1.0
      ],
      "min": [
        -1.0,
        -1.0,
        -1.0
      ],
      "type": "VEC3"
    },
    {
      "bufferView": 1,
      "byteOffset": 520800,
      "componentType": 5126,
      "count": 4218,
      "max": [
        0.9050707221031189,
        0.9973211288452148
      ],
      "min": [
        0.02429180219769478,
        -3.6071000408810505e-08
      ],
      "type": "VEC2"
    },
    {
      "bufferView": 1,
      "byteOffset": 554544,
      "componentType": 5126,
      "count": 4218,
      "max": [
        0.9050707221031189,
        0.9973211288452148
      ],
      "min": [
        0.02429180219769478,
        -3.6071000408810505e-08
      ],
      "type": "VEC2"
    },
    {
      "bufferView": 0,
      "byteOffset": 382536,
      "componentType": 5125,
      "count": 12999,
      "type": "SCALAR"
    }
  ],
  "asset": {
    "extras": {
      "author": "BlackHawk0512 (https://sketchfab.com/BlackHawk0512)",
      "license": "SKETCHFAB Standard (https://sketchfab.com/licenses)",
      "source": "https://sketchfab.com/3d-models/sci-fi-weapon-automatic-rifle-gun-halo-inspired-db02579cfe2e49b3a57ae114a23d0567",
      "title": "Sci-Fi Weapon Automatic Rifle Gun Halo Inspired"
    },
    "generator": "Sketchfab-16.12.0",
    "version": "2.0"
  },
  "bufferViews": [
    {
      "buffer": 0,
      "byteLength": 434532,
      "name": "floatBufferViews",
      "target": 34963
    },
    {
      "buffer": 0,
      "byteLength": 588288,
      "byteOffset": 434532,
      "byteStride": 8,
      "name": "floatBufferViews",
      "target": 34962
    },
    {
      "buffer": 0,
      "byteLength": 881376,
      "byteOffset": 1022820,
      "byteStride": 12,
      "name": "floatBufferViews",
      "target": 34962
    },
    {
      "buffer": 0,
      "byteLength": 384,
      "byteOffset": 1904196,
      "byteStride": 16,
      "name": "floatBufferViews",
      "target": 34962
    }
  ],
  "buffers": [
    {
      "byteLength": 1904580,
      "uri": "scene.bin"
    }
  ],
  "extensionsUsed": [
    "KHR_materials_emissive_strength"
  ],
  "images": [
    {
      "uri": "textures/body_baseColor.png"
    },
    {
      "uri": "textures/body_metallicRoughness.png"
    },
    {
      "uri": "textures/body1_baseColor.png"
    },
    {
      "uri": "textures/body1_metallicRoughness.png"
    },
    {
      "uri": "textures/body3_baseColor.png"
    },
    {
      "uri": "textures/body3_metallicRoughness.png"
    },
    {
      "uri": "textures/tornillo_baseColor.png"
    },
    {
      "uri": "textures/tornillo_metallicRoughness.png"
    },
    {
      "uri": "textures/screen_emissive.png"
    },
    {
      "uri": "textures/Material.002_emissive.png"
    },
    {
      "uri": "textures/Material_baseColor.png"
    },
    {
      "uri": "textures/Material_metallicRoughness.png"
    },
    {
      "uri": "textures/hierro_blanco_baseColor.png"
    },
    {
      "uri": "textures/hierro_blanco_metallicRoughness.png"
    },
    {
      "uri": "textures/Mango_baseColor.png"
    },
    {
      "uri": "textures/Mango_metallicRoughness.png"
    },
    {
      "uri": "textures/Flashligth_baseColor.png"
    },
    {
      "uri": "textures/Flashligth_metallicRoughness.png"
    },
    {
      "uri": "textures/Flashligth_emissive.png"
    },
    {
      "uri": "textures/Hierro_Oscuro_baseColor.png"
    },
    {
      "uri": "textures/Hierro_Oscuro_metallicRoughness.png"
    },
    {
      "uri": "textures/cilindros_baseColor.png"
    },
    {
      "uri": "textures/cilindros_metallicRoughness.png"
    },
    {
      "uri": "textures/Railgun_emision_emissive.png"
    },
    {
      "uri": "textures/glass_baseColor.png"
    },
    {
      "uri": "textures/glass_metallicRoughness.png"
    },
    {
      "uri": "textures/glass_normal.png"
    },
    {
      "uri": "textures/Material.003_emissive.png"
    }
  ],
  "materials": [
    {
      "doubleSided": true,
      "name": "body",
      "pbrMetallicRoughness": {
        "baseColorTexture": {
          "index": 0
        },
        "metallicRoughnessTexture": {
          "index": 1
        }
      }
    },
    {
      "doubleSided": true,
      "name": "body1",
      "pbrMetallicRoughness": {
        "baseColorTexture": {
          "index": 2
        },
        "metallicRoughnessTexture": {
          "index": 3
        }
      }
    },
    {
      "doubleSided": true,
      "name": "body3",
      "pbrMetallicRoughness": {
        "baseColorTexture": {
          "index": 4
        },
        "metallicRoughnessTexture": {
          "index": 5
        }
      }
    },
    {
      "doubleSided": true,
      "name": "tornillo",
      "pbrMetallicRoughness": {
        "baseColorTexture": {
          "index": 6
        },
        "metallicRoughnessTexture": {
          "index": 7
        }
      }
    },
    {
      "doubleSided": true,
      "emissiveFactor": [
        1.0,
        1.0,
        1.0
      ],
      "emissiveTexture": {
        "index": 8
      },
      "extensions": {
        "KHR_materials_emissive_strength": {
          "emissiveStrength": 1.0901050599249489
        }
      },
      "name": "screen",
      "pbrMetallicRoughness": {
        "baseColorFactor": [
          0.8,
          0.8,
          0.8,
          1.0
        ],
        "metallicFactor": 0.0,
        "roughnessFactor": 0.8211145618000169
      }
    },
    {
      "doubleSided": true,
      "emissiveFactor": [
        1.0,
        1.0,
        1.0
      ],
      "emissiveTexture": {
        "index": 9
      },
      "extensions": {
        "KHR_materials_emissive_strength": {
          "emissiveStrength": 10.0
        }
      },
      "name": "Material.002",
      "pbrMetallicRoughness": {
        "baseColorFactor": [
          0.8,
          0.8,
          0.8,
          1.0
        ],
        "metallicFactor": 0.0,
        "roughnessFactor": 0.8211145618000169
      }
    },
    {
      "doubleSided": true,
      "name": "Material",
      "pbrMetallicRoughness": {
        "baseColorTexture": {
          "index": 10
        },
        "metallicRoughnessTexture": {
          "index": 11
        }
      }
    },
    {
      "doubleSided": true,
      "name": "hierro_blanco",
      "pbrMetallicRoughness": {
        "baseColorTexture": {
          "index": 12
        },
        "metallicRoughnessTexture": {
          "index": 13
        }
      }
    },
    {
      "doubleSided": true,
      "name": "Mango",
      "pbrMetallicRoughness": {
        "baseColorTexture": {
          "index": 14
        },
        "metallicRoughnessTexture": {
          "index": 15
        }
      }
    },
    {
      "doubleSided": true,
      "emissiveFactor": [
        1.0,
        1.0,
        1.0
      ],
      "emissiveTexture": {
        "index": 18
      },
      "name": "Flashligth",
      "pbrMetallicRoughness": {
        "baseColorTexture": {
          "index": 16
        },
        "metallicRoughnessTexture": {
          "index": 17
        }
      }
    },
    {
      "doubleSided": true,
      "name": "Hierro_Oscuro",
      "pbrMetallicRoughness": {
        "baseColorTexture": {
          "index": 19
        },
        "metallicRoughnessTexture": {
          "index": 20
        }
      }
    },
    {
      "doubleSided": true,
      "name": "cilindros",
      "pbrMetallicRoughness": {
        "baseColorTexture": {
          "index": 21
        },
        "metallicRoughnessTexture": {
          "index": 22
        }
      }
    },
    {
      "doubleSided": true,
      "emissiveFactor": [
        1.0,
        1.0,
        1.0
      ],
      "emissiveTexture": {
        "index": 23
      },
      "extensions": {
        "KHR_materials_emissive_strength": {
          "emissiveStrength": 10.0
        }
      },
      "name": "Railgun_emision",
      "pbrMetallicRoughness": {
        "baseColorFactor": [
          0.8,
          0.8,
          0.8,
          1.0
        ],
        "metallicFactor": 0.0,
        "roughnessFactor": 0.8211145618000169
      }
    },
    {
      "alphaCutoff": 1.0,
      "alphaMode": "MASK",
      "doubleSided": true,
      "name": "glass",
      "normalTexture": {
        "index": 26
      },
      "pbrMetallicRoughness": {
        "baseColorTexture": {
          "index": 24
        },
        "metallicRoughnessTexture": {
          "index": 25
        }
      }
    },
    {
      "doubleSided": true,
      "emissiveFactor": [
        1.0,
        1.0,
        1.0
      ],
      "emissiveTexture": {
        "index": 27
      },
      "name": "Material.003",
      "pbrMetallicRoughness": {
        "baseColorFactor": [
          0.8,
          0.8,
          0.8,
          1.0
        ],
        "metallicFactor": 0.0,
        "roughnessFactor": 0.8211145618000169
      }
    }
  ],
  "meshes": [
    {
      "name": "sigth_large_body_0",
      "primitives": [
        {
          "attributes": {
            "NORMAL": 1,
            "POSITION": 0,
            "TEXCOORD_0": 2,
            "TEXCOORD_1": 3
          },
          "indices": 4,
          "material": 0,
          "mode": 4
        }
      ]
    },
    {
      "name": "sigth_large_body1_0",
      "primitives": [
        {
          "attributes": {
            "NORMAL": 6,
            "POSITION": 5,
            "TEXCOORD_0": 7,
            "TEXCOORD_1": 8
          },
          "indices": 9,
          "material": 1,
          "mode": 4
        }
      ]
    },
    {
      "name": "sigth_large_body3_0",
      "primitives": [
        {
          "attributes": {
            "NORMAL": 11,
            "POSITION": 10,
            "TEXCOORD_0": 12,
            "TEXCOORD_1": 13
          },
          "indices": 14,
          "material": 2,
          "mode": 4
        }
      ]
    },
    {
      "name": "trigger_body_0",
      "primitives": [
        {
          "attributes": {
            "NORMAL": 16,
            "POSITION": 15,
            "TEXCOORD_0": 17,
            "TEXCOORD_1": 18
          },
          "indices": 19,
          "material": 0,
          "mode": 4
        }
      ]
    },
    {
      "name": "front sight_body1_0",
      "primitives": [
        {
          "attributes": {
            "NORMAL": 21,
            "POSITION": 20,
            "TEXCOORD_0": 22,
            "TEXCOORD_1": 23
          },
          "indices": 24,
          "material": 1,
          "mode": 4
        }
      ]
    },
    {
      "name": "screws_tornillo_0",
      "primitives": [
        {
          "attributes": {
            "NORMAL": 26,
            "POSITION": 25,
            "TEXCOORD_0": 27,
            "TEXCOORD_1": 28
          },
          "indices": 29,
          "material": 3,
          "mode": 4
        }
      ]
    },
    {
      "name": "body_detail_body1_0",
      "primitives": [
        {
          "attributes": {
            "NORMAL": 31,
            "POSITION": 30,
            "TEXCOORD_0": 32,
            "TEXCOORD_1": 33
          },
          "indices": 34,
          "material": 1,
          "mode": 4
        }
      ]
    },
    {
      "name": "digital_panel_body_0",
      "primitives": [
        {
          "attributes": {
            "NORMAL": 36,
            "POSITION": 35,
            "TEXCOORD_0": 37,
            "TEXCOORD_1": 38
          },
          "indices": 39,
          "material": 0,
          "mode": 4
        }
      ]
    },
    {
      "name": "digital_panel_screen_0",
      "primitives": [
        {
          "attributes": {
            "NORMAL": 41,
            "POSITION": 40,
            "TEXCOORD_0": 42,
            "TEXCOORD_1": 43
          },
          "indices": 44,
          "material": 4,
          "mode": 4
        }
      ]
    },
    {
      "name": "buttom_semi_auto_body_0",
      "primitives": [
        {
          "attributes": {
            "NORMAL": 46,
            "POSITION": 45,
            "TEXCOORD_0": 47,
            "TEXCOORD_1": 48
          },
          "indices": 49,
          "material": 0,
          "mode": 4
        }
      ]
    },
    {
      "name": "buttom_semi_auto_Material.002_0",
      "primitives": [
        {
          "attributes": {
            "NORMAL": 51,
            "POSITION": 50,
            "TEXCOORD_0": 52,
            "TEXCOORD_1": 53
          },
          "indices": 54,
          "material": 5,
          "mode": 4
        }
      ]
    },
    {
      "name": "body_body_0",
      "primitives": [
        {
          "attributes": {
            "NORMAL": 56,
            "POSITION": 55,
            "TEXCOORD_0": 57,
            "TEXCOORD_1": 58
          },
          "indices": 59,
          "material": 0,
          "mode": 4
        }
      ]
    },
    {
      "name": "body_body1_0",
      "primitives": [
        {
          "attributes": {
            "NORMAL": 61,
            "POSITION": 60,
            "TEXCOORD_0": 62,
            "TEXCOORD_1": 63
          },
          "indices": 64,
          "material": 1,
          "mode": 4
        }
      ]
    },
    {
      "name": "body_Material_0",
      "primitives": [
        {
          "attributes": {
            "NORMAL": 66,
            "POSITION": 65,
            "TEXCOORD_0": 67,
            "TEXCOORD_1": 68
          },
          "indices": 69,
          "material": 6,
          "mode": 4
        }
      ]
    },
    {
      "name": "body_hierro_blanco_0",
      "primitives": [
        {
          "attributes": {
            "NORMAL": 71,
            "POSITION": 70,
            "TEXCOORD_0": 72,
            "TEXCOORD_1": 73
          },
          "indices": 74,
          "material": 7,
          "mode": 4
        }
      ]
    },
    {
      "name": "body_Mango_0",
      "primitives": [
        {
          "attributes": {
            "NORMAL": 76,
            "POSITION": 75,
            "TEXCOORD_0": 77,
            "TEXCOORD_1": 78
          },
          "indices": 79,
          "material": 8,
          "mode": 4
        }
      ]
    },
    {
      "name": "body_body3_0",
      "primitives": [
        {
          "attributes": {
            "NORMAL": 81,
            "POSITION": 80,
            "TEXCOORD_0": 82,
            "TEXCOORD_1": 83
          },
          "indices": 84,
          "material": 2,
          "mode": 4
        }
      ]
    },
    {
      "name": "body_Flashligth_0",
      "primitives": [
        {
          "attributes": {
            "NORMAL": 86,
            "POSITION": 85,
            "TEXCOORD_0": 87,
            "TEXCOORD_1": 88,
            "TEXCOORD_2": 89
          },
          "indices": 90,
          "material": 9,
          "mode": 4
        }
      ]
    },
    {
      "name": "body_Hierro Oscuro_0",
      "primitives": [
        {
          "attributes": {
            "NORMAL": 92,
            "POSITION": 91,
            "TEXCOORD_0": 93,
            "TEXCOORD_1": 94
          },
          "indices": 95,
          "material": 10,
          "mode": 4
        }
      ]
    },
    {
      "name": "body_cilindros_0",
      "primitives": [
        {
          "attributes": {
            "NORMAL": 97,
            "POSITION": 96,
            "TEXCOORD_0": 98,
            "TEXCOORD_1": 99
          },
          "indices": 100,
          "material": 11,
          "mode": 4
        }
      ]
    },
    {
      "name": "body_Railgun_emision_0",
      "primitives": [
        {
          "attributes": {
            "NORMAL": 102,
            "POSITION": 101,
            "TEXCOORD_0": 103,
            "TEXCOORD_1": 104
          },
          "indices": 105,
          "material": 12,
          "mode": 4
        }
      ]
    },
    {
      "name": "glass_glass_0",
      "primitives": [
        {
          "attributes": {
            "NORMAL": 107,
            "POSITION": 106,
            "TANGENT": 108,
            "TEXCOORD_0": 109,
            "TEXCOORD_1": 110,
            "TEXCOORD_2": 111
          },
          "indices": 112,
          "material": 13,
          "mode": 4
        }
      ]
    },
    {
      "name": "body_butt_detail_hierro_blanco_0",
      "primitives": [
        {
          "attributes": {
            "NORMAL": 114,
            "POSITION": 113,
            "TEXCOORD_0": 115,
            "TEXCOORD_1": 116
          },
          "indices": 117,
          "material": 7,
          "mode": 4
        }
      ]
    },
    {
      "name": "body.001_body3_0",
      "primitives": [
        {
          "attributes": {
            "NORMAL": 119,
            "POSITION": 118,
            "TEXCOORD_0": 120,
            "TEXCOORD_1": 121
          },
          "indices": 122,
          "material": 2,
          "mode": 4
        }
      ]
    },
    {
      "name": "light_green_tornillo_0",
      "primitives": [
        {
          "attributes": {
            "NORMAL": 124,
            "POSITION": 123,
            "TEXCOORD_0": 125,
            "TEXCOORD_1": 126
          },
          "indices": 127,
          "material": 3,
          "mode": 4
        }
      ]
    },
    {
      "name": "light_green_Material.003_0",
      "primitives": [
        {
          "attributes": {
            "NORMAL": 129,
            "POSITION": 128,
            "TEXCOORD_0": 130,
            "TEXCOORD_1": 131
          },
          "indices": 132,
          "material": 14,
          "mode": 4
        }
      ]
    },
    {
      "name": "support_Hierro Oscuro_0",
      "primitives": [
        {
          "attributes": {
            "NORMAL": 134,
            "POSITION": 133,
            "TEXCOORD_0": 135,
            "TEXCOORD_1": 136
          },
          "indices": 137,
          "material": 10,
          "mode": 4
        }
      ]
    },
    {
      "name": "support_Mango_0",
      "primitives": [
        {
          "attributes": {
            "NORMAL": 139,
            "POSITION": 138,
            "TEXCOORD_0": 140,
            "TEXCOORD_1": 141
          },
          "indices": 142,
          "material": 8,
          "mode": 4
        }
      ]
    }
  ],
  "nodes": [
    {
      "children": [
        1
      ],
      "matrix": [
        1.0,
        0.0,
        0.0,
        0.0,
        0.0,
        2.220446049250313e-16,
        -1.0,
        0.0,
        0.0,
        1.0,
        2.220446049250313e-16,
        0.0,
        0.0,
        0.0,
        0.0,
        1.0
      ],
      "name": "Sketchfab_model"
    },
    {
      "children": [
        2
      ],
      "matrix": [
        0.009999999776482582,
        0.0,
        0.0,
        0.0,
        0.0,
        0.0,
        0.009999999776482582,
        0.0,
        0.0,
        -0.009999999776482582,
        0.0,
        0.0,
        0.0,
        0.0,
        0.0,
        1.0
      ],
      "name": "307363efe878477382d10d4100407ead.fbx"
    },
    {
      "children": [
        3,
        7,
        9,
        11,
        13,
        15,
        18,
        21,
        32,
        34,
        36,
        38,
        41
      ],
      "name": "RootNode"
    },
    {
      "children": [
        4,
        5,
        6
      ],
      "name": "sigth_large"
    },
    {
      "mesh": 0,
      "name": "sigth_large_body_0"
    },
    {
      "mesh": 1,
      "name": "sigth_large_body1_0"
    },
    {
      "mesh": 2,
      "name": "sigth_large_body3_0"
    },
    {
      "children": [
        8
      ],
      "name": "trigger"
    },
    {
      "mesh": 3,
      "name": "trigger_body_0"
    },
    {
      "children": [
        10
      ],
      "name": "front sight"
    },
    {
      "mesh": 4,
      "name": "front sight_body1_0"
    },
    {
      "children": [
        12
      ],
      "name": "screws"
    },
    {
      "mesh": 5,
      "name": "screws_tornillo_0"
    },
    {
      "children": [
        14
      ],
      "name": "body_detail"
    },
    {
      "mesh": 6,
      "name": "body_detail_body1_0"
    },
    {
      "children": [
        16,
        17
      ],
      "name": "digital_panel"
    },
    {
      "mesh": 7,
      "name": "digital_panel_body_0"
    },
    {
      "mesh": 8,
      "name": "digital_panel_screen_0"
    },
    {
      "children": [
        19,
        20
      ],
      "name": "buttom_semi_auto"
    },
    {
      "mesh": 9,
      "name": "buttom_semi_auto_body_0"
    },
    {
      "mesh": 10,
      "name": "buttom_semi_auto_Material.002_0"
    },
    {
      "children": [
        22,
        23,
        24,
        25,
        26,
        27,
        28,
        29,
        30,
        31
      ],
      "name": "body"
    },
    {
      "mesh": 11,
      "name": "body_body_0"
    },
    {
      "mesh": 12,
      "name": "body_body1_0"
    },
    {
      "mesh": 13,
      "name": "body_Material_0"
    },
    {
      "mesh": 14,
      "name": "body_hierro_blanco_0"
    },
    {
      "mesh": 15,
      "name": "body_Mango_0"
    },
    {
      "mesh": 16,
      "name": "body_body3_0"
    },
    {
      "mesh": 17,
      "name": "body_Flashligth_0"
    },
    {
      "mesh": 18,
      "name": "body_Hierro Oscuro_0"
    },
    {
      "mesh": 19,
      "name": "body_cilindros_0"
    },
    {
      "mesh": 20,
      "name": "body_Railgun_emision_0"
    },
    {
      "children": [
        33
      ],
      "name": "glass"
    },
    {
      "mesh": 21,
      "name": "glass_glass_0"
    },
    {
      "children": [
        35
      ],
      "name": "body_butt_detail"
    },
    {
      "mesh": 22,
      "name": "body_butt_detail_hierro_blanco_0"
    },
    {
      "children": [
        37
      ],
      "name": "body.001"
    },
    {
      "mesh": 23,
      "name": "body.001_body3_0"
    },
    {
      "children": [
        39,
        40
      ],
      "name": "light_green"
    },
    {
      "mesh": 24,
      "name": "light_green_tornillo_0"
    },
    {
      "mesh": 25,
      "name": "light_green_Material.003_0"
    },
    {
      "children": [
        42,
        43
      ],
      "name": "support"
    },
    {
      "mesh": 26,
      "name": "support_Hierro Oscuro_0"
    },
    {
      "mesh": 27,
      "name": "support_Mango_0"
    }
  ],
  "samplers": [
    {
      "magFilter": 9729,
      "minFilter": 9987,
      "wrapS": 10497,
      "wrapT": 10497
    }
  ],
  "scene": 0,
  "scenes": [
    {
      "name": "Sketchfab_Scene",
      "nodes": [
        0
      ]
    }
  ],
  "textures": [
    {
      "sampler": 0,
      "source": 0
    },
    {
      "sampler": 0,
      "source": 1
    },
    {
      "sampler": 0,
      "source": 2
    },
    {
      "sampler": 0,
      "source": 3
    },
    {
      "sampler": 0,
      "source": 4
    },
    {
      "sampler": 0,
      "source": 5
    },
    {
      "sampler": 0,
      "source": 6
    },
    {
      "sampler": 0,
      "source": 7
    },
    {
      "sampler": 0,
      "source": 8
    },
    {
      "sampler": 0,
      "source": 9
    },
    {
      "sampler": 0,
      "source": 10
    },
    {
      "sampler": 0,
      "source": 11
    },
    {
      "sampler": 0,
      "source": 12
    },
    {
      "sampler": 0,
      "source": 13
    },
    {
      "sampler": 0,
      "source": 14
    },
    {
      "sampler": 0,
      "source": 15
    },
    {
      "sampler": 0,
      "source": 16
    },
    {
      "sampler": 0,
      "source": 17
    },
    {
      "sampler": 0,
      "source": 18
    },
    {
      "sampler": 0,
      "source": 19
    },
    {
      "sampler": 0,
      "source": 20
    },
    {
      "sampler": 0,
      "source": 21
    },
    {
      "sampler": 0,
      "source": 22
    },
    {
      "sampler": 0,
      "source": 23
    },
    {
      "sampler": 0,
      "source": 24
    },
    {
      "sampler": 0,
      "source": 25
    },
    {
      "sampler": 0,
      "source": 26
    },
    {
      "sampler": 0,
      "source": 27
    }
  ]
}
